<svg width="36" height="36" viewBox="0 0 36 36" fill="none" xmlns="http://www.w3.org/2000/svg">
<path d="M28.5 16.4958H10.71L16.155 9.95746C16.4096 9.65122 16.5321 9.2564 16.4955 8.85986C16.459 8.46332 16.2663 8.09755 15.96 7.843C15.6537 7.58846 15.2588 7.466 14.8621 7.50256C14.4655 7.53912 14.0996 7.73171 13.845 8.03795L6.345 17.0357C6.29454 17.1072 6.24942 17.1824 6.21 17.2606C6.21 17.3356 6.21 17.3806 6.105 17.4556C6.03701 17.6275 6.00141 17.8105 6 17.9954C6.00141 18.1803 6.03701 18.3633 6.105 18.5353C6.105 18.6103 6.105 18.6552 6.21 18.7302C6.24942 18.8084 6.29454 18.8836 6.345 18.9552L13.845 27.9529C13.986 28.1222 14.1626 28.2583 14.3623 28.3516C14.5619 28.4449 14.7796 28.4931 15 28.4927C15.3505 28.4934 15.6901 28.3714 15.96 28.1478C16.1119 28.0219 16.2374 27.8673 16.3295 27.6929C16.4215 27.5184 16.4782 27.3275 16.4963 27.131C16.5144 26.9346 16.4936 26.7366 16.435 26.5482C16.3765 26.3599 16.2813 26.1849 16.155 26.0334L10.71 19.495H28.5C28.8978 19.495 29.2794 19.337 29.5607 19.0558C29.842 18.7746 30 18.3931 30 17.9954C30 17.5977 29.842 17.2163 29.5607 16.935C29.2794 16.6538 28.8978 16.4958 28.5 16.4958Z" fill="white"/>
<path d="M28.5 16.4958H10.71L16.155 9.95745C16.4096 9.6512 16.5321 9.25638 16.4956 8.85984C16.459 8.4633 16.2664 8.09753 15.96 7.84299C15.6537 7.58844 15.2588 7.46598 14.8622 7.50254C14.4655 7.5391 14.0996 7.73169 13.845 8.03794L6.34504 17.0356C6.29458 17.1072 6.24946 17.1824 6.21004 17.2606C6.21004 17.3356 6.21004 17.3806 6.10504 17.4555C6.03705 17.6275 6.00145 17.8105 6.00004 17.9954C6.00145 18.1803 6.03705 18.3633 6.10504 18.5353C6.10504 18.6102 6.10504 18.6552 6.21004 18.7302C6.24946 18.8084 6.29458 18.8836 6.34504 18.9552L13.845 27.9529C13.9861 28.1221 14.1627 28.2583 14.3623 28.3516C14.5619 28.4449 14.7797 28.4931 15 28.4927C15.3505 28.4934 15.6902 28.3714 15.96 28.1478C16.1119 28.0219 16.2375 27.8673 16.3295 27.6928C16.4215 27.5184 16.4782 27.3274 16.4963 27.131C16.5145 26.9346 16.4936 26.7366 16.4351 26.5482C16.3765 26.3598 16.2813 26.1849 16.155 26.0334L10.71 19.495H28.5C28.8979 19.495 29.2794 19.337 29.5607 19.0558C29.842 18.7746 30 18.3931 30 17.9954C30 17.5977 29.842 17.2162 29.5607 16.935C29.2794 16.6538 28.8979 16.4958 28.5 16.4958Z" fill="white"/>
</svg>
