<svg width="22" height="22" viewBox="0 0 22 22" fill="none" xmlns="http://www.w3.org/2000/svg">
<path d="M17.4166 18.3287H4.58332C4.34021 18.3287 4.10705 18.4252 3.93514 18.5971C3.76323 18.7689 3.66665 19.002 3.66665 19.2451C3.66665 19.4881 3.76323 19.7212 3.93514 19.8931C4.10705 20.065 4.34021 20.1615 4.58332 20.1615H17.4166C17.6598 20.1615 17.8929 20.065 18.0648 19.8931C18.2367 19.7212 18.3333 19.4881 18.3333 19.2451C18.3333 19.002 18.2367 18.7689 18.0648 18.5971C17.8929 18.4252 17.6598 18.3287 17.4166 18.3287ZM4.58332 16.4958H4.66582L8.48832 16.1475C8.90705 16.1058 9.29868 15.9214 9.59749 15.6252L17.8475 7.37728C18.1677 7.03909 18.3407 6.58778 18.3287 6.12226C18.3167 5.65674 18.1206 5.21496 17.7833 4.89375L15.2716 2.38272C14.9438 2.07489 14.5143 1.89826 14.0647 1.88643C13.6151 1.8746 13.1769 2.0284 12.8333 2.31857L4.58332 10.5665C4.28702 10.8652 4.10253 11.2567 4.06082 11.6753L3.66665 15.4969C3.65431 15.6311 3.67173 15.7664 3.71768 15.8931C3.76363 16.0199 3.83697 16.1349 3.93249 16.23C4.01814 16.315 4.11972 16.3822 4.23141 16.4278C4.34309 16.4734 4.46268 16.4965 4.58332 16.4958ZM13.9975 3.66573L16.5 6.16759L14.6666 7.95463L12.21 5.49859L13.9975 3.66573ZM5.83915 11.8311L11 6.70829L13.475 9.18265L8.34165 14.3147L5.59165 14.5713L5.83915 11.8311Z" fill="white"/>
</svg>
