<svg width="27" height="27" viewBox="0 0 27 27" fill="none" xmlns="http://www.w3.org/2000/svg">
<path d="M0 0.843535C0 0.619815 0.0888948 0.405259 0.247129 0.247066C0.405362 0.0888722 0.619973 0 0.84375 0L5.90625 0C6.13002 0 6.34464 0.0888722 6.50287 0.247066C6.6611 0.405259 6.75 0.619815 6.75 0.843535C6.75 1.06725 6.6611 1.28181 6.50287 1.44C6.34464 1.5982 6.13002 1.68707 5.90625 1.68707H1.6875V5.90474C1.6875 6.12846 1.5986 6.34302 1.44037 6.50121C1.28214 6.65941 1.06753 6.74828 0.84375 6.74828C0.619973 6.74828 0.405362 6.65941 0.247129 6.50121C0.0888948 6.34302 0 6.12846 0 5.90474V0.843535ZM20.25 0.843535C20.25 0.619815 20.3389 0.405259 20.4971 0.247066C20.6554 0.0888722 20.87 0 21.0937 0L26.1562 0C26.38 0 26.5946 0.0888722 26.7529 0.247066C26.9111 0.405259 27 0.619815 27 0.843535V5.90474C27 6.12846 26.9111 6.34302 26.7529 6.50121C26.5946 6.65941 26.38 6.74828 26.1562 6.74828C25.9325 6.74828 25.7179 6.65941 25.5596 6.50121C25.4014 6.34302 25.3125 6.12846 25.3125 5.90474V1.68707H21.0937C20.87 1.68707 20.6554 1.5982 20.4971 1.44C20.3389 1.28181 20.25 1.06725 20.25 0.843535ZM0.84375 20.2448C1.06753 20.2448 1.28214 20.3337 1.44037 20.4919C1.5986 20.6501 1.6875 20.8646 1.6875 21.0884V25.306H5.90625C6.13002 25.306 6.34464 25.3949 6.50287 25.5531C6.6611 25.7113 6.75 25.9259 6.75 26.1496C6.75 26.3733 6.6611 26.5879 6.50287 26.746C6.34464 26.9042 6.13002 26.9931 5.90625 26.9931H0.84375C0.619973 26.9931 0.405362 26.9042 0.247129 26.746C0.0888948 26.5879 0 26.3733 0 26.1496V21.0884C0 20.8646 0.0888948 20.6501 0.247129 20.4919C0.405362 20.3337 0.619973 20.2448 0.84375 20.2448ZM26.1562 20.2448C26.38 20.2448 26.5946 20.3337 26.7529 20.4919C26.9111 20.6501 27 20.8646 27 21.0884V26.1496C27 26.3733 26.9111 26.5879 26.7529 26.746C26.5946 26.9042 26.38 26.9931 26.1562 26.9931H21.0937C20.87 26.9931 20.6554 26.9042 20.4971 26.746C20.3389 26.5879 20.25 26.3733 20.25 26.1496C20.25 25.9259 20.3389 25.7113 20.4971 25.5531C20.6554 25.3949 20.87 25.306 21.0937 25.306H25.3125V21.0884C25.3125 20.8646 25.4014 20.6501 25.5596 20.4919C25.7179 20.3337 25.9325 20.2448 26.1562 20.2448ZM6.75 6.74828H8.4375V8.43535H6.75V6.74828Z" fill="white"/>
<path d="M11.8125 3.37414H3.37499V11.8095H11.8125V3.37414ZM5.06249 5.06121H10.125V10.1224H5.06249V5.06121ZM8.43749 18.5578H6.74999V20.2448H8.43749V18.5578Z" fill="white"/>
<path d="M11.8125 15.1836H3.37499V23.619H11.8125V15.1836ZM5.06249 16.8707H10.125V21.9319H5.06249V16.8707ZM18.5625 6.74828H20.25V8.43535H18.5625V6.74828Z" fill="white"/>
<path d="M15.1875 3.37414H23.625V11.8095H15.1875V3.37414ZM16.875 5.06121V10.1224H21.9375V5.06121H16.875ZM13.5 13.4966V16.8707H15.1875V18.5578H13.5V20.2448H16.875V16.8707H18.5625V20.2448H20.25V18.5578H23.625V16.8707H18.5625V13.4966H13.5ZM16.875 16.8707H15.1875V15.1836H16.875V16.8707ZM23.625 20.2448H21.9375V21.9319H18.5625V23.619H23.625V20.2448ZM16.875 23.619V21.9319H13.5V23.619H16.875Z" fill="white"/>
<path d="M20.25 15.1836H23.625V13.4966H20.25V15.1836Z" fill="white"/>
</svg>
