<svg width="32" height="32" viewBox="0 0 32 32" fill="none" xmlns="http://www.w3.org/2000/svg">
<path d="M26.4287 21.5984L26.4295 21.5995C26.4613 21.6378 26.512 21.6994 26.5653 21.7642C26.6269 21.839 26.6918 21.9179 26.7347 21.9696C26.8808 22.146 26.9732 22.3607 27.0011 22.5881L27.9937 22.4666L27.0011 22.5881C27.0289 22.8155 26.991 23.0461 26.8918 23.2525L26.891 23.2541C26.6777 23.7001 26.2223 23.9981 25.6562 23.9981H6.35062C5.77735 23.9981 5.31951 23.6972 5.10842 23.2525L5.10704 23.2496C5.00827 23.0432 4.9707 22.8128 4.99877 22.5858C5.02684 22.3587 5.11937 22.1444 5.26541 21.9683L5.26544 21.9683L5.27128 21.9612C5.35899 21.8534 5.44527 21.7493 5.5335 21.6429C5.54599 21.6279 5.55852 21.6128 5.5711 21.5976L5.57132 21.5973L5.60181 21.5605C6.27397 20.7493 6.92162 19.9677 7.36091 18.756C7.79917 17.5471 8.00812 15.9825 8.00812 13.5844C8.00812 11.5776 8.40988 10.0082 9.1565 8.79495C9.89755 7.59074 11.0266 6.65836 12.625 6.00033L12.6801 5.97765L12.7322 5.94859C12.8484 5.88362 12.953 5.79969 13.0416 5.70028L13.1894 5.53435L13.2531 5.32141C13.6924 3.85199 14.8403 3 16 3C17.1597 3 18.3081 3.85191 18.7474 5.32301L18.8081 5.52631L18.9462 5.68743C19.0378 5.79435 19.1476 5.88416 19.2707 5.95264L19.3221 5.98119L19.3764 6.00354C20.7509 6.56903 21.7427 7.31091 22.4657 8.25625L22.4662 8.25697C23.4473 9.53738 23.9925 11.3042 23.9925 13.5863C23.9925 15.9837 24.2018 17.5477 24.6402 18.7566C25.0789 19.9663 25.7252 20.7478 26.3955 21.5583L26.4287 21.5984Z" stroke="white" stroke-width="2"/>
<path d="M16 30C16.9031 29.9993 17.7893 29.7541 18.5644 29.2905C19.3394 28.827 19.9746 28.1622 20.4025 27.3669C20.4227 27.3288 20.4326 27.2861 20.4314 27.243C20.4302 27.1999 20.4179 27.1578 20.3956 27.1209C20.3733 27.084 20.3419 27.0534 20.3043 27.0323C20.2668 27.0111 20.2244 27 20.1812 27H11.82C11.7768 26.9998 11.7344 27.0109 11.6967 27.032C11.6591 27.0532 11.6275 27.0837 11.6052 27.1206C11.5829 27.1576 11.5705 27.1997 11.5692 27.2428C11.568 27.286 11.5779 27.3287 11.5981 27.3669C12.026 28.1621 12.661 28.8268 13.436 29.2904C14.211 29.7539 15.097 29.9992 16 30Z" fill="white"/>
</svg>
