<svg width="36" height="36" viewBox="0 0 36 36" fill="none" xmlns="http://www.w3.org/2000/svg">
<path d="M18 7.02359C19.3195 7.02359 20.5849 7.54763 21.5179 8.48034C22.4508 9.41305 22.9749 10.678 22.9749 11.9969C22.9749 13.3159 22.4508 14.5808 21.5179 15.5135C20.5849 16.4463 19.3195 16.9703 18 16.9703C16.6805 16.9703 15.4151 16.4463 14.4821 15.5135C13.5492 14.5808 13.0251 13.3159 13.0251 11.9969C13.0251 10.678 13.5492 9.41305 14.4821 8.48034C15.4151 7.54763 16.6805 7.02359 18 7.02359ZM18 22.0198C21.1905 22.0198 24.027 22.6678 26.0279 23.668C28.0899 24.6988 28.9749 25.9334 28.9749 26.9931V28.9672H7.02512V26.9931C7.02512 25.9334 7.91009 24.6988 9.9721 23.668C11.973 22.6678 14.8095 22.0198 18 22.0198Z" stroke="white" stroke-width="2"/>
</svg>
